<?xml version="1.0" encoding="UTF-8" standalone="no"?>
<!-- Created with Inkscape (http://www.inkscape.org/) -->

<svg
   xmlns:osb="http://www.openswatchbook.org/uri/2009/osb"
   xmlns:dc="http://purl.org/dc/elements/1.1/"
   xmlns:cc="http://creativecommons.org/ns#"
   xmlns:rdf="http://www.w3.org/1999/02/22-rdf-syntax-ns#"
   xmlns:svg="http://www.w3.org/2000/svg"
   xmlns="http://www.w3.org/2000/svg"
   xmlns:xlink="http://www.w3.org/1999/xlink"
   xmlns:sodipodi="http://sodipodi.sourceforge.net/DTD/sodipodi-0.dtd"
   xmlns:inkscape="http://www.inkscape.org/namespaces/inkscape"
   width="379"
   height="139"
   id="svg2"
   version="1.1"
   inkscape:version="0.48.4 r9939"
   sodipodi:docname="myCity.svg">
  <defs
     id="defs4">
    <linearGradient
       id="linearGradient4540"
       osb:paint="solid">
      <stop
         style="stop-color:#ffffff;stop-opacity:1;"
         offset="0"
         id="stop4542" />
    </linearGradient>
    <linearGradient
       inkscape:collect="always"
       xlink:href="#linearGradient4540"
       id="linearGradient4544"
       x1="152.13707"
       y1="115.17634"
       x2="183.06603"
       y2="115.17634"
       gradientUnits="userSpaceOnUse"
       gradientTransform="translate(1.06293,0)" />
    <linearGradient
       inkscape:collect="always"
       xlink:href="#linearGradient4540-6"
       id="linearGradient4544-6"
       x1="152.13707"
       y1="115.17634"
       x2="183.06602"
       y2="115.17634"
       gradientUnits="userSpaceOnUse" />
    <linearGradient
       id="linearGradient4540-6"
       osb:paint="solid">
      <stop
         style="stop-color:#ffffff;stop-opacity:1;"
         offset="0"
         id="stop4542-0" />
    </linearGradient>
    <linearGradient
       gradientTransform="matrix(-1,0,0,1,366.77704,-4.6e-6)"
       y2="115.17634"
       x2="183.06602"
       y1="115.17634"
       x1="152.13707"
       gradientUnits="userSpaceOnUse"
       id="linearGradient4560"
       xlink:href="#linearGradient4540-6"
       inkscape:collect="always" />
  </defs>
  <sodipodi:namedview
     id="base"
     pagecolor="#ffffff"
     bordercolor="#666666"
     borderopacity="1.0"
     inkscape:pageopacity="0.0"
     inkscape:pageshadow="2"
     inkscape:zoom="6.1231628"
     inkscape:cx="326.45078"
     inkscape:cy="57.321254"
     inkscape:document-units="px"
     inkscape:current-layer="layer2"
     showgrid="false"
     inkscape:window-width="1920"
     inkscape:window-height="1018"
     inkscape:window-x="-8"
     inkscape:window-y="-8"
     inkscape:window-maximized="1" />
  <metadata
     id="metadata7">
    <rdf:RDF>
      <cc:Work
         rdf:about="">
        <dc:format>image/svg+xml</dc:format>
        <dc:type
           rdf:resource="http://purl.org/dc/dcmitype/StillImage" />
        <dc:title></dc:title>
      </cc:Work>
    </rdf:RDF>
  </metadata>
  <g
     inkscape:label="Background"
     inkscape:groupmode="layer"
     id="layer1"
     transform="translate(0,-913.36218)"
     style="display:none"
     sodipodi:insensitive="true">
    <rect
       style="opacity:0.25600011;fill:#999999"
       id="rect2986"
       width="378.8056"
       height="138.9241"
       x="9.446385e-008"
       y="914.3009" />
  </g>
  <g
     inkscape:groupmode="layer"
     id="layer2"
     inkscape:label="city">
    <path
       style="fill:#ffffff"
       d="m 4.3125,65 0,74 37,0 0,-74 -37,0 z m 4.15625,4.4375 6,0 0,9 -6,0 0,-9 z m 11.15625,0 6,0 0,9 -6,0 0,-9 z m 11.5625,0 6,0 0,9 -6,0 0,-9 z M 8.46875,82.375 l 6,0 0,9 -6,0 0,-9 z m 11.15625,0 6,0 0,9 -6,0 0,-9 z m 11.5625,0 6,0 0,9 -6,0 0,-9 z M 8.46875,95.75 l 6,0 0,9 -6,0 0,-9 z m 11.15625,0 6,0 0,9 -6,0 0,-9 z m 11.5625,0 6,0 0,9 -6,0 0,-9 z m -22.71875,13.375 6,0 0,9 -6,0 0,-9 z m 11.15625,0 6,0 0,9 -6,0 0,-9 z m 11.5625,0 6,0 0,9 -6,0 0,-9 z m -22.71875,12.28125 6,0 0,9 -6,0 0,-9 z m 11.15625,0 6,0 0,9 -6,0 0,-9 z m 11.5625,0 6,0 0,9 -6,0 0,-9 z"
       id="rect3003"
       inkscape:connector-curvature="0" />
    <path
       style="fill:#ffffff"
       d="m 44,103 0,36 53,0 0,-36 -53,0 z m 5.1875,4.21875 6,0 0,9 -6,0 0,-9 z m 11.40625,0 6,0 0,9 -6,0 0,-9 z m 11.84375,0 6,0 0,9 -6,0 0,-9 z m 11.78125,0 6,0 0,9 -6,0 0,-9 z m -35.03125,11.6875 6,0 0,9 -6,0 0,-9 z m 11.40625,0 6,0 0,9 -6,0 0,-9 z m 11.84375,0 6,0 0,9 -6,0 0,-9 z m 11.78125,0 6,0 0,9 -6,0 0,-9 z"
       id="rect3005"
       inkscape:connector-curvature="0" />
    <path
       style="fill:#ffffff"
       d="M 114.15625 12 L 114.15625 12.125 L 114.21875 12.125 L 114.21875 72.125 L 99.21875 72.125 L 99.21875 139 L 144.21875 139 L 144.21875 45.84375 L 129.21875 45.84375 L 129.21875 12 L 114.15625 12 z M 117.25 15.1875 L 120.25 15.1875 L 120.25 21.1875 L 117.25 21.1875 L 117.25 15.1875 z M 123.25 15.1875 L 126.25 15.1875 L 126.25 21.1875 L 123.25 21.1875 L 123.25 15.1875 z M 117.25 23.59375 L 120.25 23.59375 L 120.25 29.59375 L 117.25 29.59375 L 117.25 23.59375 z M 123.25 23.59375 L 126.25 23.59375 L 126.25 29.59375 L 123.25 29.59375 L 123.25 23.59375 z M 117.25 31.6875 L 120.25 31.6875 L 120.25 37.6875 L 117.25 37.6875 L 117.25 31.6875 z M 123.25 31.6875 L 126.25 31.6875 L 126.25 37.6875 L 123.25 37.6875 L 123.25 31.6875 z M 117.25 39.75 L 120.25 39.75 L 120.25 45.75 L 117.25 45.75 L 117.25 39.75 z M 123.25 39.75 L 126.25 39.75 L 126.25 45.75 L 123.25 45.75 L 123.25 39.75 z M 117.25 48.6875 L 120.25 48.6875 L 120.25 54.6875 L 117.25 54.6875 L 117.25 48.6875 z M 123.25 48.6875 L 126.25 48.6875 L 126.25 54.6875 L 123.25 54.6875 L 123.25 48.6875 z M 129.53125 48.6875 L 132.53125 48.6875 L 132.53125 54.6875 L 129.53125 54.6875 L 129.53125 48.6875 z M 135.53125 48.6875 L 138.53125 48.6875 L 138.53125 54.6875 L 135.53125 54.6875 L 135.53125 48.6875 z M 117.25 57.3125 L 120.25 57.3125 L 120.25 63.3125 L 117.25 63.3125 L 117.25 57.3125 z M 123.25 57.3125 L 126.25 57.3125 L 126.25 63.3125 L 123.25 63.3125 L 123.25 57.3125 z M 129.53125 57.3125 L 132.53125 57.3125 L 132.53125 63.3125 L 129.53125 63.3125 L 129.53125 57.3125 z M 135.53125 57.3125 L 138.53125 57.3125 L 138.53125 63.3125 L 135.53125 63.3125 L 135.53125 57.3125 z M 117.25 65.40625 L 120.25 65.40625 L 120.25 71.40625 L 117.25 71.40625 L 117.25 65.40625 z M 123.25 65.40625 L 126.25 65.40625 L 126.25 71.40625 L 123.25 71.40625 L 123.25 65.40625 z M 129.53125 65.40625 L 132.53125 65.40625 L 132.53125 71.40625 L 129.53125 71.40625 L 129.53125 65.40625 z M 135.53125 65.40625 L 138.53125 65.40625 L 138.53125 71.40625 L 135.53125 71.40625 L 135.53125 65.40625 z M 104.4375 74.03125 L 107.4375 74.03125 L 107.4375 80.03125 L 104.4375 80.03125 L 104.4375 74.03125 z M 110.4375 74.03125 L 113.4375 74.03125 L 113.4375 80.03125 L 110.4375 80.03125 L 110.4375 74.03125 z M 117.25 74.03125 L 120.25 74.03125 L 120.25 80.03125 L 117.25 80.03125 L 117.25 74.03125 z M 123.25 74.03125 L 126.25 74.03125 L 126.25 80.03125 L 123.25 80.03125 L 123.25 74.03125 z M 129.53125 74.03125 L 132.53125 74.03125 L 132.53125 80.03125 L 129.53125 80.03125 L 129.53125 74.03125 z M 135.53125 74.03125 L 138.53125 74.03125 L 138.53125 80.03125 L 135.53125 80.03125 L 135.53125 74.03125 z M 104.4375 82.125 L 107.4375 82.125 L 107.4375 88.125 L 104.4375 88.125 L 104.4375 82.125 z M 110.4375 82.125 L 113.4375 82.125 L 113.4375 88.125 L 110.4375 88.125 L 110.4375 82.125 z M 117.25 82.125 L 120.25 82.125 L 120.25 88.125 L 117.25 88.125 L 117.25 82.125 z M 123.25 82.125 L 126.25 82.125 L 126.25 88.125 L 123.25 88.125 L 123.25 82.125 z M 129.53125 82.125 L 132.53125 82.125 L 132.53125 88.125 L 129.53125 88.125 L 129.53125 82.125 z M 135.53125 82.125 L 138.53125 82.125 L 138.53125 88.125 L 135.53125 88.125 L 135.53125 82.125 z M 104.4375 90.75 L 107.4375 90.75 L 107.4375 96.75 L 104.4375 96.75 L 104.4375 90.75 z M 110.4375 90.75 L 113.4375 90.75 L 113.4375 96.75 L 110.4375 96.75 L 110.4375 90.75 z M 117.25 90.75 L 120.25 90.75 L 120.25 96.75 L 117.25 96.75 L 117.25 90.75 z M 123.25 90.75 L 126.25 90.75 L 126.25 96.75 L 123.25 96.75 L 123.25 90.75 z M 129.53125 90.75 L 132.53125 90.75 L 132.53125 96.75 L 129.53125 96.75 L 129.53125 90.75 z M 135.53125 90.75 L 138.53125 90.75 L 138.53125 96.75 L 135.53125 96.75 L 135.53125 90.75 z M 104.4375 99.125 L 107.4375 99.125 L 107.4375 105.125 L 104.4375 105.125 L 104.4375 99.125 z M 110.4375 99.125 L 113.4375 99.125 L 113.4375 105.125 L 110.4375 105.125 L 110.4375 99.125 z M 117.25 99.125 L 120.25 99.125 L 120.25 105.125 L 117.25 105.125 L 117.25 99.125 z M 123.25 99.125 L 126.25 99.125 L 126.25 105.125 L 123.25 105.125 L 123.25 99.125 z M 129.53125 99.125 L 132.53125 99.125 L 132.53125 105.125 L 129.53125 105.125 L 129.53125 99.125 z M 135.53125 99.125 L 138.53125 99.125 L 138.53125 105.125 L 135.53125 105.125 L 135.53125 99.125 z M 104.4375 107.1875 L 107.4375 107.1875 L 107.4375 113.1875 L 104.4375 113.1875 L 104.4375 107.1875 z M 110.4375 107.1875 L 113.4375 107.1875 L 113.4375 113.1875 L 110.4375 113.1875 L 110.4375 107.1875 z M 117.25 107.1875 L 120.25 107.1875 L 120.25 113.1875 L 117.25 113.1875 L 117.25 107.1875 z M 123.25 107.1875 L 126.25 107.1875 L 126.25 113.1875 L 123.25 113.1875 L 123.25 107.1875 z M 129.53125 107.1875 L 132.53125 107.1875 L 132.53125 113.1875 L 129.53125 113.1875 L 129.53125 107.1875 z M 135.53125 107.1875 L 138.53125 107.1875 L 138.53125 113.1875 L 135.53125 113.1875 L 135.53125 107.1875 z M 104.4375 115.5625 L 107.4375 115.5625 L 107.4375 121.5625 L 104.4375 121.5625 L 104.4375 115.5625 z M 110.4375 115.5625 L 113.4375 115.5625 L 113.4375 121.5625 L 110.4375 121.5625 L 110.4375 115.5625 z M 117.25 115.5625 L 120.25 115.5625 L 120.25 121.5625 L 117.25 121.5625 L 117.25 115.5625 z M 123.25 115.5625 L 126.25 115.5625 L 126.25 121.5625 L 123.25 121.5625 L 123.25 115.5625 z M 129.53125 115.5625 L 132.53125 115.5625 L 132.53125 121.5625 L 129.53125 121.5625 L 129.53125 115.5625 z M 135.53125 115.5625 L 138.53125 115.5625 L 138.53125 121.5625 L 135.53125 121.5625 L 135.53125 115.5625 z M 104.4375 123.90625 L 107.4375 123.90625 L 107.4375 129.90625 L 104.4375 129.90625 L 104.4375 123.90625 z M 110.4375 123.90625 L 113.4375 123.90625 L 113.4375 129.90625 L 110.4375 129.90625 L 110.4375 123.90625 z M 117.25 123.90625 L 120.25 123.90625 L 120.25 129.90625 L 117.25 129.90625 L 117.25 123.90625 z M 123.25 123.90625 L 126.25 123.90625 L 126.25 129.90625 L 123.25 129.90625 L 123.25 123.90625 z M 129.53125 123.90625 L 132.53125 123.90625 L 132.53125 129.90625 L 129.53125 129.90625 L 129.53125 123.90625 z M 135.53125 123.90625 L 138.53125 123.90625 L 138.53125 129.90625 L 135.53125 129.90625 L 135.53125 123.90625 z "
       id="rect3007" />
    <path
       style="fill:#ffffff"
       d="m 224.375,85 0,54 11.9375,0 0,-11.125 0,-0.875 0.0625,0 c 0.43041,-3.17265 3.1468,-5.625 6.4375,-5.625 3.2907,0 6.00709,2.45235 6.4375,5.625 l 0.0625,0 0,0.875 0,11.125 5,0 0,-11.125 0,-0.875 0.0625,0 c 0.43041,-3.17265 3.1468,-5.625 6.4375,-5.625 3.2907,0 6.00709,2.45235 6.4375,5.625 l 0.0625,0 0,0.875 0,11.125 5,0 0,-11.125 0,-0.875 0.0625,0 c 0.43041,-3.17265 3.1468,-5.625 6.4375,-5.625 3.2907,0 6.00709,2.45235 6.4375,5.625 l 0.0625,0 0,0.875 0,11.125 5,0 0,-11.125 0,-0.875 0.0625,0 c 0.43041,-3.17265 3.1468,-5.625 6.4375,-5.625 3.2907,0 6.00709,2.45235 6.4375,5.625 l 0.0625,0 0,0.875 0,11.125 5,0 0,-11.125 0,-0.875 0.0625,0 c 0.43041,-3.17265 3.1468,-5.625 6.4375,-5.625 3.2907,0 6.00709,2.45235 6.4375,5.625 l 0.0625,0 0,0.875 0,11.125 14.0625,0 0,-54 -11,0 0,22.9375 c 0,0.0203 1.9e-4,0.0422 0,0.0625 -0.0317,3.44425 -2.74971,6.22497 -6.15625,6.40625 -5e-4,3e-5 5e-4,0.0312 0,0.0312 l -0.34375,0 -76,0 c -3.5695,0 -6.46726,-2.87574 -6.5,-6.4375 l 0,-0.0625 0,-22.9375 -11,0 z"
       id="rect3011"
       inkscape:connector-curvature="0" />
    <path
       style="fill:#ffffff;fill-opacity:1"
       d="M 183.21875 54.25 C 162.50807 54.25 145.71875 71.039321 145.71875 91.75 C 145.71875 112.46068 162.50807 129.25 183.21875 129.25 C 203.92943 129.25 220.71875 112.46068 220.71875 91.75 C 220.71875 71.039321 203.92943 54.25 183.21875 54.25 z M 183.21875 57.25 C 202.27257 57.25 217.71875 72.696177 217.71875 91.75 C 217.71875 110.80382 202.27257 126.25 183.21875 126.25 C 164.16493 126.25 148.71875 110.80382 148.71875 91.75 C 148.71875 72.696177 164.16493 57.25 183.21875 57.25 z "
       id="path3730" />
    <path
       sodipodi:type="arc"
       style="fill:#ffffff;fill-opacity:1"
       id="path3768"
       sodipodi:cx="163.42197"
       sodipodi:cy="56.801403"
       sodipodi:rx="11.006253"
       sodipodi:ry="11.702851"
       d="m 174.42822,56.801403 a 11.006253,11.702851 0 1 1 -22.01251,0 11.006253,11.702851 0 1 1 22.01251,0 z"
       transform="matrix(0.54514464,0,0,0.51269557,94.139391,62.626172)" />
    <path
       style="fill:url(#linearGradient4544);fill-opacity:1;stroke:none"
       d="M 180.78529,91.352677 153.2,138.72136 169.36108,139 184.12896,93.581791 z"
       id="path3770"
       inkscape:connector-curvature="0" />
    <path
       style="fill:url(#linearGradient4560);fill-opacity:1;stroke:none"
       d="M 187.05468,91.352672 214.63997,138.72136 198.47889,139 183.71101,93.581786 z"
       id="path3770-3"
       inkscape:connector-curvature="0" />
    <rect
       style="fill:#ffffff;fill-opacity:1;stroke:none"
       id="rect4577"
       width="73"
       height="3"
       x="146.56429"
       y="89.95948" />
    <rect
       style="fill:#ffffff;fill-opacity:1;stroke:none"
       id="rect4577-0"
       width="73"
       height="3"
       x="147.40195"
       y="89.852676" />
    <rect
       style="fill:#ffffff;fill-opacity:1;stroke:none"
       id="rect4577-0-4"
       width="73"
       height="3"
       x="-127.853"
       y="182.40199"
       transform="matrix(0,-1,1,0,0,0)" />
    <rect
       style="fill:#ffffff;fill-opacity:1;stroke:none"
       id="rect4577-0-7"
       width="73"
       height="3"
       x="132.49901"
       y="-118.13896"
       transform="matrix(0.48437994,0.87485774,-0.87485774,0.48437994,0,0)" />
    <rect
       style="fill:#ffffff;fill-opacity:1;stroke:none"
       id="rect4577-0-4-8"
       width="73"
       height="3"
       x="80.138641"
       y="167.49905"
       transform="matrix(0.87485774,-0.48437994,0.48437994,0.87485774,0,0)" />
    <rect
       style="fill:#ffffff;fill-opacity:1;stroke:none"
       id="rect4577-0-3"
       width="73"
       height="3"
       x="-26.370474"
       y="203.7157"
       transform="matrix(0.48955241,-0.87197387,0.87197387,0.48955241,0,0)" />
    <rect
       style="fill:#ffffff;fill-opacity:1;stroke:none"
       id="rect4577-0-4-5"
       width="73"
       height="3"
       x="-241.71602"
       y="8.6295729"
       transform="matrix(-0.87197387,-0.48955241,0.48955241,-0.87197387,0,0)" />
    <path
       style="fill:#ffffff;display:inline"
       d="M 337.34375 59 L 337.34375 139 L 376.34375 139 L 376.34375 59 L 337.34375 59 z M 340.34375 61.5625 L 346.34375 61.5625 L 346.34375 70.5625 L 340.34375 70.5625 L 340.34375 61.5625 z M 349.34375 61.5625 L 355.34375 61.5625 L 355.34375 70.5625 L 349.34375 70.5625 L 349.34375 61.5625 z M 358.34375 61.5625 L 364.34375 61.5625 L 364.34375 70.5625 L 358.34375 70.5625 L 358.34375 61.5625 z M 367.34375 61.5625 L 373.34375 61.5625 L 373.34375 70.5625 L 367.34375 70.5625 L 367.34375 61.5625 z M 340.34375 73.0625 L 346.34375 73.0625 L 346.34375 82.0625 L 340.34375 82.0625 L 340.34375 73.0625 z M 349.34375 73.0625 L 355.34375 73.0625 L 355.34375 82.0625 L 349.34375 82.0625 L 349.34375 73.0625 z M 358.34375 73.0625 L 364.34375 73.0625 L 364.34375 82.0625 L 358.34375 82.0625 L 358.34375 73.0625 z M 367.34375 73.0625 L 373.34375 73.0625 L 373.34375 82.0625 L 367.34375 82.0625 L 367.34375 73.0625 z M 340.34375 84.5625 L 346.34375 84.5625 L 346.34375 93.5625 L 340.34375 93.5625 L 340.34375 84.5625 z M 349.34375 84.5625 L 355.34375 84.5625 L 355.34375 93.5625 L 349.34375 93.5625 L 349.34375 84.5625 z M 358.34375 84.5625 L 364.34375 84.5625 L 364.34375 93.5625 L 358.34375 93.5625 L 358.34375 84.5625 z M 367.34375 84.5625 L 373.34375 84.5625 L 373.34375 93.5625 L 367.34375 93.5625 L 367.34375 84.5625 z M 340.34375 96.0625 L 346.34375 96.0625 L 346.34375 105.0625 L 340.34375 105.0625 L 340.34375 96.0625 z M 349.34375 96.0625 L 355.34375 96.0625 L 355.34375 105.0625 L 349.34375 105.0625 L 349.34375 96.0625 z M 358.34375 96.0625 L 364.34375 96.0625 L 364.34375 105.0625 L 358.34375 105.0625 L 358.34375 96.0625 z M 367.34375 96.0625 L 373.34375 96.0625 L 373.34375 105.0625 L 367.34375 105.0625 L 367.34375 96.0625 z M 340.34375 107.5625 L 346.34375 107.5625 L 346.34375 116.5625 L 340.34375 116.5625 L 340.34375 107.5625 z M 349.34375 107.5625 L 355.34375 107.5625 L 355.34375 116.5625 L 349.34375 116.5625 L 349.34375 107.5625 z M 358.34375 107.5625 L 364.34375 107.5625 L 364.34375 116.5625 L 358.34375 116.5625 L 358.34375 107.5625 z M 367.34375 107.5625 L 373.34375 107.5625 L 373.34375 116.5625 L 367.34375 116.5625 L 367.34375 107.5625 z M 340.34375 119.0625 L 346.34375 119.0625 L 346.34375 128.0625 L 340.34375 128.0625 L 340.34375 119.0625 z M 349.34375 119.0625 L 355.34375 119.0625 L 355.34375 128.0625 L 349.34375 128.0625 L 349.34375 119.0625 z M 358.34375 119.0625 L 364.34375 119.0625 L 364.34375 128.0625 L 358.34375 128.0625 L 358.34375 119.0625 z M 367.34375 119.0625 L 373.34375 119.0625 L 373.34375 128.0625 L 367.34375 128.0625 L 367.34375 119.0625 z "
       id="rect4745-1" />
  </g>
  <g
     inkscape:label="city copy"
     id="g4735"
     inkscape:groupmode="layer"
     style="display:none">
    <rect
       y="63.066292"
       x="4.3144169"
       height="74"
       width="37"
       id="rect4737"
       style="fill:#ffffff" />
    <rect
       y="101.03315"
       x="44.007038"
       height="36"
       width="53"
       id="rect4739"
       style="fill:#ffffff" />
    <rect
       y="10.430426"
       x="99.231552"
       height="127"
       width="45"
       id="rect4741"
       style="fill:#ffffff" />
    <rect
       y="83.775482"
       x="224.37656"
       height="54"
       width="111"
       id="rect4743"
       style="fill:#ffffff" />
    <rect
       y="57.888996"
       x="338.25015"
       height="80"
       width="39"
       id="rect4745"
       style="fill:#ffffff" />
    <rect
       y="67.5"
       x="8.467"
       height="9"
       width="6"
       id="rect4747"
       style="fill:#ff0000" />
    <rect
       y="67.5"
       x="19.619308"
       height="9"
       width="6"
       id="rect4749"
       style="fill:#ff0000" />
    <rect
       y="67.5"
       x="31.173588"
       height="9"
       width="6"
       id="rect4751"
       style="fill:#ff0000" />
    <rect
       y="80.44397"
       x="8.467"
       height="9"
       width="6"
       id="rect4753"
       style="fill:#ff0000" />
    <rect
       y="80.44397"
       x="19.619308"
       height="9"
       width="6"
       id="rect4755"
       style="fill:#ff0000" />
    <rect
       y="80.44397"
       x="31.17359"
       height="9"
       width="6"
       id="rect4757"
       style="fill:#ff0000" />
    <rect
       y="93.818657"
       x="8.467"
       height="9"
       width="6"
       id="rect4759"
       style="fill:#ff0000" />
    <rect
       y="93.818657"
       x="19.619308"
       height="9"
       width="6"
       id="rect4761"
       style="fill:#ff0000" />
    <rect
       y="93.818657"
       x="31.17359"
       height="9"
       width="6"
       id="rect4763"
       style="fill:#ff0000" />
    <rect
       y="107.19334"
       x="8.467"
       height="9"
       width="6"
       id="rect4765"
       style="fill:#ff0000" />
    <rect
       y="107.19334"
       x="19.61931"
       height="9"
       width="6"
       id="rect4767"
       style="fill:#ff0000" />
    <rect
       y="107.19334"
       x="31.17359"
       height="9"
       width="6"
       id="rect4769"
       style="fill:#ff0000" />
    <rect
       y="105.24287"
       x="49.176476"
       height="9"
       width="6"
       id="rect4771"
       style="fill:#ff0000" />
    <rect
       y="105.24287"
       x="60.607418"
       height="9"
       width="6"
       id="rect4773"
       style="fill:#ff0000" />
    <rect
       y="105.24287"
       x="72.440338"
       height="9"
       width="6"
       id="rect4775"
       style="fill:#ff0000" />
    <rect
       y="105.24287"
       x="84.214104"
       height="9"
       width="6"
       id="rect4777"
       style="fill:#ff0000" />
    <rect
       y="116.94572"
       x="49.175999"
       height="9"
       width="6"
       id="rect4779"
       style="fill:#ff0000" />
    <rect
       y="116.94572"
       x="60.606945"
       height="9"
       width="6"
       id="rect4781"
       style="fill:#ff0000" />
    <rect
       y="116.94572"
       x="72.439865"
       height="9"
       width="6"
       id="rect4783"
       style="fill:#ff0000" />
    <rect
       y="116.94572"
       x="84.213623"
       height="9"
       width="6"
       id="rect4785"
       style="fill:#ff0000" />
    <rect
       y="10.547276"
       x="99.232002"
       height="60"
       width="15"
       id="rect4787"
       style="fill:#ff0000" />
    <rect
       y="10.268636"
       x="129.23199"
       height="34"
       width="15"
       id="rect4789"
       style="fill:#ff0000" />
    <rect
       y="13.612308"
       x="117.242"
       height="6"
       width="3"
       id="rect4791"
       style="fill:#ff0000" />
    <rect
       y="13.612"
       x="123.242"
       height="6"
       width="3"
       id="rect4793"
       style="fill:#ff0000" />
    <rect
       y="22.036673"
       x="117.242"
       height="6"
       width="3"
       id="rect4795"
       style="fill:#ff0000" />
    <rect
       y="22.036366"
       x="123.242"
       height="6"
       width="3"
       id="rect4797"
       style="fill:#ff0000" />
    <rect
       y="30.117212"
       x="117.242"
       height="6"
       width="3"
       id="rect4799"
       style="fill:#ff0000" />
    <rect
       y="30.116905"
       x="123.242"
       height="6"
       width="3"
       id="rect4801"
       style="fill:#ff0000" />
    <rect
       y="38.197754"
       x="117.242"
       height="6"
       width="3"
       id="rect4803"
       style="fill:#ff0000" />
    <rect
       y="38.197445"
       x="123.242"
       height="6"
       width="3"
       id="rect4805"
       style="fill:#ff0000" />
    <rect
       y="47.114212"
       x="117.242"
       height="6"
       width="3"
       id="rect4807"
       style="fill:#ff0000" />
    <rect
       y="47.113907"
       x="123.242"
       height="6"
       width="3"
       id="rect4809"
       style="fill:#ff0000" />
    <rect
       y="55.752029"
       x="117.242"
       height="6"
       width="3"
       id="rect4811"
       style="fill:#ff0000" />
    <rect
       y="55.751724"
       x="123.242"
       height="6"
       width="3"
       id="rect4813"
       style="fill:#ff0000" />
    <rect
       y="63.832569"
       x="117.242"
       height="6"
       width="3"
       id="rect4815"
       style="fill:#ff0000" />
    <rect
       y="63.83226"
       x="123.242"
       height="6"
       width="3"
       id="rect4817"
       style="fill:#ff0000" />
    <rect
       y="72.47039"
       x="117.242"
       height="6"
       width="3"
       id="rect4819"
       style="fill:#ff0000" />
    <rect
       y="72.470085"
       x="123.242"
       height="6"
       width="3"
       id="rect4821"
       style="fill:#ff0000" />
    <rect
       y="80.550926"
       x="117.242"
       height="6"
       width="3"
       id="rect4823"
       style="fill:#ff0000" />
    <rect
       y="80.550621"
       x="123.242"
       height="6"
       width="3"
       id="rect4825"
       style="fill:#ff0000" />
    <rect
       y="89.188744"
       x="117.242"
       height="6"
       width="3"
       id="rect4827"
       style="fill:#ff0000" />
    <rect
       y="89.188438"
       x="123.242"
       height="6"
       width="3"
       id="rect4829"
       style="fill:#ff0000" />
    <rect
       y="97.547928"
       x="117.242"
       height="6"
       width="3"
       id="rect4831"
       style="fill:#ff0000" />
    <rect
       y="97.547623"
       x="123.242"
       height="6"
       width="3"
       id="rect4833"
       style="fill:#ff0000" />
    <rect
       y="105.62847"
       x="117.242"
       height="6"
       width="3"
       id="rect4835"
       style="fill:#ff0000" />
    <rect
       y="105.62817"
       x="123.242"
       height="6"
       width="3"
       id="rect4837"
       style="fill:#ff0000" />
    <rect
       y="113.98764"
       x="117.242"
       height="6"
       width="3"
       id="rect4839"
       style="fill:#ff0000" />
    <rect
       y="113.98734"
       x="123.242"
       height="6"
       width="3"
       id="rect4841"
       style="fill:#ff0000" />
    <rect
       y="122.34682"
       x="117.242"
       height="6"
       width="3"
       id="rect4843"
       style="fill:#ff0000" />
    <rect
       y="122.34651"
       x="123.242"
       height="6"
       width="3"
       id="rect4845"
       style="fill:#ff0000" />
    <rect
       y="47.114399"
       x="129.52551"
       height="6"
       width="3"
       id="rect4847"
       style="fill:#ff0000" />
    <rect
       y="47.114094"
       x="135.52551"
       height="6"
       width="3"
       id="rect4849"
       style="fill:#ff0000" />
    <rect
       y="55.752216"
       x="129.52551"
       height="6"
       width="3"
       id="rect4851"
       style="fill:#ff0000" />
    <rect
       y="55.751911"
       x="135.52551"
       height="6"
       width="3"
       id="rect4853"
       style="fill:#ff0000" />
    <rect
       y="63.832756"
       x="129.52551"
       height="6"
       width="3"
       id="rect4855"
       style="fill:#ff0000" />
    <rect
       y="63.832447"
       x="135.52551"
       height="6"
       width="3"
       id="rect4857"
       style="fill:#ff0000" />
    <rect
       y="72.470581"
       x="129.52551"
       height="6"
       width="3"
       id="rect4859"
       style="fill:#ff0000" />
    <rect
       y="72.470276"
       x="135.52551"
       height="6"
       width="3"
       id="rect4861"
       style="fill:#ff0000" />
    <rect
       y="80.551117"
       x="129.52551"
       height="6"
       width="3"
       id="rect4863"
       style="fill:#ff0000" />
    <rect
       y="80.550812"
       x="135.52551"
       height="6"
       width="3"
       id="rect4865"
       style="fill:#ff0000" />
    <rect
       y="89.188934"
       x="129.52551"
       height="6"
       width="3"
       id="rect4867"
       style="fill:#ff0000" />
    <rect
       y="89.188629"
       x="135.52551"
       height="6"
       width="3"
       id="rect4869"
       style="fill:#ff0000" />
    <rect
       y="97.548119"
       x="129.52551"
       height="6"
       width="3"
       id="rect4871"
       style="fill:#ff0000" />
    <rect
       y="97.547813"
       x="135.52551"
       height="6"
       width="3"
       id="rect4873"
       style="fill:#ff0000" />
    <rect
       y="105.62866"
       x="129.52551"
       height="6"
       width="3"
       id="rect4875"
       style="fill:#ff0000" />
    <rect
       y="105.62836"
       x="135.52551"
       height="6"
       width="3"
       id="rect4877"
       style="fill:#ff0000" />
    <rect
       y="113.98783"
       x="129.52551"
       height="6"
       width="3"
       id="rect4879"
       style="fill:#ff0000" />
    <rect
       y="113.98753"
       x="135.52551"
       height="6"
       width="3"
       id="rect4881"
       style="fill:#ff0000" />
    <rect
       y="122.347"
       x="129.52551"
       height="6"
       width="3"
       id="rect4883"
       style="fill:#ff0000" />
    <rect
       y="122.3467"
       x="135.52551"
       height="6"
       width="3"
       id="rect4885"
       style="fill:#ff0000" />
    <rect
       y="72.470581"
       x="104.44798"
       height="6"
       width="3"
       id="rect4887"
       style="fill:#ff0000" />
    <rect
       y="72.470276"
       x="110.44797"
       height="6"
       width="3"
       id="rect4889"
       style="fill:#ff0000" />
    <rect
       y="80.551117"
       x="104.44798"
       height="6"
       width="3"
       id="rect4891"
       style="fill:#ff0000" />
    <rect
       y="80.550812"
       x="110.44797"
       height="6"
       width="3"
       id="rect4893"
       style="fill:#ff0000" />
    <rect
       y="89.188934"
       x="104.44798"
       height="6"
       width="3"
       id="rect4895"
       style="fill:#ff0000" />
    <rect
       y="89.188629"
       x="110.44797"
       height="6"
       width="3"
       id="rect4897"
       style="fill:#ff0000" />
    <rect
       y="97.548119"
       x="104.44798"
       height="6"
       width="3"
       id="rect4899"
       style="fill:#ff0000" />
    <rect
       y="97.547813"
       x="110.44797"
       height="6"
       width="3"
       id="rect4901"
       style="fill:#ff0000" />
    <rect
       y="105.62866"
       x="104.44798"
       height="6"
       width="3"
       id="rect4903"
       style="fill:#ff0000" />
    <rect
       y="105.62836"
       x="110.44797"
       height="6"
       width="3"
       id="rect4905"
       style="fill:#ff0000" />
    <rect
       y="113.98783"
       x="104.44798"
       height="6"
       width="3"
       id="rect4907"
       style="fill:#ff0000" />
    <rect
       y="113.98753"
       x="110.44797"
       height="6"
       width="3"
       id="rect4909"
       style="fill:#ff0000" />
    <rect
       y="122.347"
       x="104.44798"
       height="6"
       width="3"
       id="rect4911"
       style="fill:#ff0000" />
    <rect
       y="122.3467"
       x="110.44797"
       height="6"
       width="3"
       id="rect4913"
       style="fill:#ff0000" />
    <rect
       y="125.775"
       x="236.3"
       height="12"
       width="13"
       id="rect4915"
       style="fill:#ff0000" />
    <path
       transform="matrix(1.2609539,0,0,1.2609539,-87.983897,46.768981)"
       d="m 267.49376,63.349426 a 5.1548276,5.1548276 0 1 1 -10.30966,0 5.1548276,5.1548276 0 1 1 10.30966,0 z"
       sodipodi:ry="5.1548276"
       sodipodi:rx="5.1548276"
       sodipodi:cy="63.349426"
       sodipodi:cx="262.33893"
       id="path4917"
       style="fill:#ff0000"
       sodipodi:type="arc" />
    <rect
       y="125.775"
       x="254.3"
       height="12"
       width="13"
       id="rect4919"
       style="fill:#ff0000" />
    <path
       transform="matrix(1.2609539,0,0,1.2609539,-69.983901,46.768985)"
       d="m 267.49376,63.349426 a 5.1548276,5.1548276 0 1 1 -10.30966,0 5.1548276,5.1548276 0 1 1 10.30966,0 z"
       sodipodi:ry="5.1548276"
       sodipodi:rx="5.1548276"
       sodipodi:cy="63.349426"
       sodipodi:cx="262.33893"
       id="path4921"
       style="fill:#ff0000"
       sodipodi:type="arc" />
    <rect
       y="125.775"
       x="272.29999"
       height="12"
       width="13"
       id="rect4923"
       style="fill:#ff0000" />
    <path
       transform="matrix(1.2609539,0,0,1.2609539,-51.983915,46.768985)"
       d="m 267.49376,63.349426 a 5.1548276,5.1548276 0 1 1 -10.30966,0 5.1548276,5.1548276 0 1 1 10.30966,0 z"
       sodipodi:ry="5.1548276"
       sodipodi:rx="5.1548276"
       sodipodi:cy="63.349426"
       sodipodi:cx="262.33893"
       id="path4925"
       style="fill:#ff0000"
       sodipodi:type="arc" />
    <rect
       y="125.775"
       x="290.29999"
       height="12"
       width="13"
       id="rect4927"
       style="fill:#ff0000" />
    <path
       transform="matrix(1.2609539,0,0,1.2609539,-33.983899,46.768987)"
       d="m 267.49376,63.349426 a 5.1548276,5.1548276 0 1 1 -10.30966,0 5.1548276,5.1548276 0 1 1 10.30966,0 z"
       sodipodi:ry="5.1548276"
       sodipodi:rx="5.1548276"
       sodipodi:cy="63.349426"
       sodipodi:cx="262.33893"
       id="path4929"
       style="fill:#ff0000"
       sodipodi:type="arc" />
    <rect
       y="125.775"
       x="308.29999"
       height="12"
       width="13"
       id="rect4931"
       style="fill:#ff0000" />
    <path
       transform="matrix(1.2609539,0,0,1.2609539,-15.983878,46.768987)"
       d="m 267.49376,63.349426 a 5.1548276,5.1548276 0 1 1 -10.30966,0 5.1548276,5.1548276 0 1 1 10.30966,0 z"
       sodipodi:ry="5.1548276"
       sodipodi:rx="5.1548276"
       sodipodi:cy="63.349426"
       sodipodi:cx="262.33893"
       id="path4933"
       style="fill:#ff0000"
       sodipodi:type="arc" />
    <rect
       y="83.775002"
       x="235.377"
       height="23"
       width="89"
       id="rect4935"
       style="fill:#ff0000" />
    <path
       transform="matrix(1.2609539,0,0,1.2609539,-88.920295,26.846658)"
       d="m 267.49376,63.349426 a 5.1548276,5.1548276 0 1 1 -10.30966,0 5.1548276,5.1548276 0 1 1 10.30966,0 z"
       sodipodi:ry="5.1548276"
       sodipodi:rx="5.1548276"
       sodipodi:cy="63.349426"
       sodipodi:cx="262.33893"
       id="path4937"
       style="fill:#ff0000"
       sodipodi:type="arc" />
    <path
       transform="matrix(1.2609539,0,0,1.2609539,-12.920295,26.846294)"
       d="m 267.49376,63.349426 a 5.1548276,5.1548276 0 1 1 -10.30966,0 5.1548276,5.1548276 0 1 1 10.30966,0 z"
       sodipodi:ry="5.1548276"
       sodipodi:rx="5.1548276"
       sodipodi:cy="63.349426"
       sodipodi:cx="262.33893"
       id="path4939"
       style="fill:#ff0000"
       sodipodi:type="arc" />
    <rect
       y="99.016396"
       x="241.877"
       height="14.210606"
       width="76.347168"
       id="rect4941"
       style="fill:#ff0000" />
    <rect
       y="60.464939"
       x="341.25"
       height="9"
       width="6"
       id="rect4943"
       style="fill:#ff0000" />
    <rect
       y="60.464939"
       x="350.25"
       height="9"
       width="6"
       id="rect4945"
       style="fill:#ff0000" />
    <rect
       y="60.464939"
       x="359.25"
       height="9"
       width="6"
       id="rect4947"
       style="fill:#ff0000" />
    <rect
       y="60.464939"
       x="368.25"
       height="9"
       width="6"
       id="rect4949"
       style="fill:#ff0000" />
    <rect
       y="73.464996"
       x="341.25"
       height="9"
       width="6"
       id="rect4951"
       style="fill:#ff0000" />
    <rect
       y="73.464996"
       x="350.25"
       height="9"
       width="6"
       id="rect4953"
       style="fill:#ff0000" />
    <rect
       y="73.464996"
       x="359.25"
       height="9"
       width="6"
       id="rect4955"
       style="fill:#ff0000" />
    <rect
       y="73.464996"
       x="368.25"
       height="9"
       width="6"
       id="rect4957"
       style="fill:#ff0000" />
    <rect
       y="86.464996"
       x="341.25"
       height="9"
       width="6"
       id="rect4959"
       style="fill:#ff0000" />
    <rect
       y="86.464996"
       x="350.25"
       height="9"
       width="6"
       id="rect4961"
       style="fill:#ff0000" />
    <rect
       y="86.464996"
       x="359.25"
       height="9"
       width="6"
       id="rect4963"
       style="fill:#ff0000" />
    <rect
       y="86.464996"
       x="368.25"
       height="9"
       width="6"
       id="rect4965"
       style="fill:#ff0000" />
    <rect
       y="99.464996"
       x="341.25"
       height="9"
       width="6"
       id="rect4967"
       style="fill:#ff0000" />
    <rect
       y="99.464996"
       x="350.25"
       height="9"
       width="6"
       id="rect4969"
       style="fill:#ff0000" />
    <rect
       y="99.464996"
       x="359.25"
       height="9"
       width="6"
       id="rect4971"
       style="fill:#ff0000" />
    <rect
       y="99.464996"
       x="368.25"
       height="9"
       width="6"
       id="rect4973"
       style="fill:#ff0000" />
    <rect
       y="112.465"
       x="341.25"
       height="9"
       width="6"
       id="rect4975"
       style="fill:#ff0000" />
    <rect
       y="112.465"
       x="350.25"
       height="9"
       width="6"
       id="rect4977"
       style="fill:#ff0000" />
    <rect
       y="112.465"
       x="359.25"
       height="9"
       width="6"
       id="rect4979"
       style="fill:#ff0000" />
    <rect
       y="112.465"
       x="368.25"
       height="9"
       width="6"
       id="rect4981"
       style="fill:#ff0000" />
    <rect
       y="125.465"
       x="341.25"
       height="9"
       width="6"
       id="rect4983"
       style="fill:#ff0000" />
    <rect
       y="125.465"
       x="350.25"
       height="9"
       width="6"
       id="rect4985"
       style="fill:#ff0000" />
    <rect
       y="125.465"
       x="359.25"
       height="9"
       width="6"
       id="rect4987"
       style="fill:#ff0000" />
    <rect
       y="125.465"
       x="368.25"
       height="9"
       width="6"
       id="rect4989"
       style="fill:#ff0000" />
    <rect
       y="119.45348"
       x="8.467"
       height="9"
       width="6"
       id="rect4991"
       style="fill:#ff0000" />
    <rect
       y="119.45348"
       x="19.619308"
       height="9"
       width="6"
       id="rect4993"
       style="fill:#ff0000" />
    <rect
       y="119.45348"
       x="31.173588"
       height="9"
       width="6"
       id="rect4995"
       style="fill:#ff0000" />
    <path
       transform="matrix(1.1652172,0,0,1.1405304,-32.843059,-22.294571)"
       d="m 217.61731,99.990494 a 32.182842,32.87944 0 1 1 -64.36569,0 32.182842,32.87944 0 1 1 64.36569,0 z"
       sodipodi:ry="32.87944"
       sodipodi:rx="32.182842"
       sodipodi:cy="99.990494"
       sodipodi:cx="185.43446"
       id="path4997"
       style="fill:#ffffff;fill-opacity:1"
       sodipodi:type="arc" />
    <path
       transform="matrix(1.0719998,0,0,1.0492879,-15.557707,-13.170814)"
       d="m 217.61731,99.990494 a 32.182842,32.87944 0 1 1 -64.36569,0 32.182842,32.87944 0 1 1 64.36569,0 z"
       sodipodi:ry="32.87944"
       sodipodi:rx="32.182842"
       sodipodi:cy="99.990494"
       sodipodi:cx="185.43446"
       id="path4999"
       style="fill:#ff0000;fill-opacity:1"
       sodipodi:type="arc" />
    <path
       transform="matrix(0.54514464,0,0,0.51269557,94.139391,62.626172)"
       d="m 174.42822,56.801403 a 11.006253,11.702851 0 1 1 -22.01251,0 11.006253,11.702851 0 1 1 22.01251,0 z"
       sodipodi:ry="11.702851"
       sodipodi:rx="11.006253"
       sodipodi:cy="56.801403"
       sodipodi:cx="163.42197"
       id="path5001"
       style="fill:#ffffff;fill-opacity:1"
       sodipodi:type="arc" />
    <path
       inkscape:connector-curvature="0"
       id="path5003"
       d="M 180.78529,91.352677 153.2,138.72136 169.36108,139 184.12896,93.581791 z"
       style="fill:url(#linearGradient4544);fill-opacity:1;stroke:none" />
    <path
       inkscape:connector-curvature="0"
       id="path5005"
       d="M 187.05468,91.352672 214.63997,138.72136 198.47889,139 183.71101,93.581786 z"
       style="fill:url(#linearGradient4560);fill-opacity:1;stroke:none" />
    <rect
       y="89.95948"
       x="146.56429"
       height="3"
       width="73"
       id="rect5007"
       style="fill:#ffffff;fill-opacity:1;stroke:none" />
    <rect
       y="89.852676"
       x="147.40195"
       height="3"
       width="73"
       id="rect5009"
       style="fill:#ffffff;fill-opacity:1;stroke:none" />
    <rect
       transform="matrix(0,-1,1,0,0,0)"
       y="182.40199"
       x="-127.853"
       height="3"
       width="73"
       id="rect5011"
       style="fill:#ffffff;fill-opacity:1;stroke:none" />
    <rect
       transform="matrix(0.48437994,0.87485774,-0.87485774,0.48437994,0,0)"
       y="-118.13896"
       x="132.49901"
       height="3"
       width="73"
       id="rect5013"
       style="fill:#ffffff;fill-opacity:1;stroke:none" />
    <rect
       transform="matrix(0.87485774,-0.48437994,0.48437994,0.87485774,0,0)"
       y="167.49905"
       x="80.138641"
       height="3"
       width="73"
       id="rect5015"
       style="fill:#ffffff;fill-opacity:1;stroke:none" />
    <rect
       transform="matrix(0.48955241,-0.87197387,0.87197387,0.48955241,0,0)"
       y="203.7157"
       x="-26.370474"
       height="3"
       width="73"
       id="rect5017"
       style="fill:#ffffff;fill-opacity:1;stroke:none" />
    <rect
       transform="matrix(-0.87197387,-0.48955241,0.48955241,-0.87197387,0,0)"
       y="8.6295729"
       x="-241.71602"
       height="3"
       width="73"
       id="rect5019"
       style="fill:#ffffff;fill-opacity:1;stroke:none" />
  </g>
</svg>
