<svg xmlns="http://www.w3.org/2000/svg" xmlns:xlink="http://www.w3.org/1999/xlink" version="1.1" id="Layer_1" x="0px" y="0px" width="443.797px" height="54.08px" viewBox="0 0 443.797 54.08" style="enable-background:new 0 0 443.797 54.08;" xml:space="preserve">
<style type="text/css">

	.st0{fill:white;}

</style>
<path class="st0" d="M236.985 3.816c-1.624-2.588-4.785-3.511-7.199-3.511h-24.553L179.821 54.33h12.757l9.733-21.209l6.844 0 c0.006 0 2 0.1 2.9 1.594c0.825 1.4 0.6 3.438-0.686 6.186c-3.083 6.609-5.526 13.465-5.526 13.465l12.939 0 c0 0 0.482-2.625 1.567-5.223c0.983-2.363 3.955-9.816 3.98-9.891c2.486-6.139-0.576-8.562-2.519-9.762 c4.903-0.515 8.407-2.823 10.396-6.924c1.616-3.343 4.119-8.754 4.143-8.809C238.825 8.7 238.1 5.5 237 3.8 M224.023 13.144l-2.231 4.68l-1.33 2.78c-1.079 2.281-2.745 3.438-4.946 3.438h-8.895l6.749-14.697h9.738 c0 0 0.9 0 1.3 0.7C224.814 10.7 224.7 11.8 224 13.144z"/>
<path class="st0" d="M100.791 3.816c-1.624-2.588-4.788-3.511-7.206-3.511H69.032L43.625 54.33h12.753l9.732-21.209l6.845 0 c0.007 0 2 0.1 2.9 1.594c0.828 1.4 0.6 3.438-0.686 6.186c-3.084 6.609-5.526 13.465-5.526 13.465l12.942 0 c0 0 0.479-2.625 1.563-5.223c0.985-2.363 3.954-9.816 3.981-9.891c2.489-6.139-0.574-8.562-2.516-9.762 c4.903-0.515 8.411-2.823 10.393-6.924c1.619-3.343 4.121-8.754 4.146-8.809C102.629 8.7 101.9 5.5 100.8 3.8 M87.826 13.144l-2.235 4.68l-1.33 2.78c-1.079 2.281-2.74 3.438-4.943 3.438H70.42l6.942-14.697h9.544c0 0 0.9 0 1.3 0.7 C88.616 10.7 88.5 11.8 87.8 13.144z"/>
<path class="st0" d="M131.374 43.841c2.536-5.281 6.063-12.822 9.8-20.807l4.353-9.296c4.494-9.574-0.584-13.737-7.03-13.737 h-15.449c-6.52 0-11.125 3.079-14.078 9.407c-1.587 3.396-4.242 8.953-7.312 15.386l-6.523 13.7 c-6.512 13.7 3.2 15.9 8 15.95h9.787C122.759 54.5 127.6 51.7 131.4 43.8 M114.027 44.382h-5.62 c-1.026 0.049-3.025-0.267-1.502-3.542c2.182-4.704 11.321-24.402 13.188-28.362c1.271-2.701 2.593-3.242 4.31-3.242h6.951 c1.345-0.057 2.5 0.7 1.4 2.988l-12.964 27.691C118.028 43.7 116.8 44.4 114 44.382z"/>
<path class="st0" d="M182.99 0.001h-13.215c-6.744 0-12.214 3.429-15.009 9.407c-2.393 5.128-13.774 29.054-13.774 29.1 c-4.163 8.749-1.753 15.9 9.6 15.95h10.164c8.119 0.1 12.112-1.19 15.82-9.312l9.467-20.746l-19.284-0.028l-4.241 9 l6.721 0.014l-3.775 8.17c-1.104 2.367-1.851 2.846-4.441 2.846h-6.675c-1.982 0.016-2.704-0.99-1.499-3.542 c1.516-3.225 13.517-28.282 13.517-28.282c1.356-2.851 2.173-3.282 4.272-3.282h6.904c1.666-0.01 2.6 0.8 1.5 3 c-0.251 0.491-3.029 6.503-3.029 6.503l12.167 0.092l2.765-5.945C194.974 4.2 191.4 0.1 183 0.001z"/>
<polygon class="st0" points="337.9,54.2 363.5,0.1 350.2,0.1 324.8,54.2"/>
<polygon class="st0" points="396,0.2 366.3,47.8 381.3,0.2 367.6,0.2 355,54.2 372.7,54.2 409.8,0.2"/>
<path class="st0" d="M294.445 35.463l-1.101-19.986c-0.133-2.406 0.457-5.68 4.867-5.68h8.856l4.545-9.641h-15.097 c-11.962 0.012-16.04 7.313-15.574 15.902c0.28 5.3 1 22.3 1 22.328c0.186 4.115-1.398 6.041-5.252 6.045h-10.097 l-4.524 9.81h16.1C288.857 54.2 295.1 47.3 294.4 35.463z"/>
<path class="st0" d="M324.64 35.463l-1.104-19.986c-0.132-2.406 0.459-5.68 4.868-5.68h8.856l4.55-9.641h-15.103 c-9.922 0.009-16.138 5.421-15.574 15.902c0.285 5.3 1 22.3 1 22.328c0.188 4.115-1.396 6.041-5.25 6.045h-9.842 l-4.526 9.81h15.844C320.118 54.2 325.3 45.8 324.6 35.463z"/>
<path class="st0" d="M250.665 0.226L225.39 54.229h31.965l4.656-9.78h-19.425l6.844-14.397h16.41l4.211-9.047h-16.471L258.82 9.8 l17.037 0.029c0.035 0 4.456-9.59 4.456-9.59L250.665 0.226z"/>
<path class="st0" d="M414.151 0.226l-25.273 54.003h31.963l4.652-9.78h-19.416l6.838-14.397h16.414l4.211-9.047h-16.471l5.24-11.225 l17.035 0.029c0.029 0 4.453-9.59 4.453-9.59L414.151 0.226z"/>
<path class="st0" d="M13.376 54.394H0.274l25.2-54.077h24.271c5.583 0 10.8 4.4 6.5 13.7 c-2.403 5.312-4.524 9.899-5.595 12.105c-3.327 6.852-7.601 9.377-15.765 9.32c-5.353-0.037-12.758 0-12.758 0L13.376 54.394z M34.712 26.01c2.303 0 3.806-0.987 4.875-3.262c0.194-0.41 1.992-4.146 4.355-9.155c1.655-3.503 0.367-4.415-1.438-4.415 l-8.242-0.01l-7.77 16.829L34.712 26.01z"/>
</svg>
